<mxfile host="app.diagrams.net" agent="Mozilla/5.0 (Windows NT 10.0; Win64; x64) AppleWebKit/537.36 (KHTML, like Gecko) Chrome/137.0.0.0 Safari/537.36 Edg/137.0.0.0" version="27.1.4">
  <diagram name="ER-Modell SchÃ¶n" id="er_model_final">
    <mxGraphModel dx="919" dy="581" grid="1" gridSize="10" guides="1" tooltips="1" connect="1" arrows="1" fold="1" page="1" pageScale="1" pageWidth="827" pageHeight="1169" math="0" shadow="0">
      <root>
        <mxCell id="0" />
        <mxCell id="1" parent="0" />
        <mxCell id="user" value="User" style="shape=rectangle;whiteSpace=wrap;html=1;fillColor=#ffffff;" parent="1" vertex="1">
          <mxGeometry x="330" y="135.01" width="80" height="30" as="geometry" />
        </mxCell>
        <mxCell id="route" value="Route" style="shape=rectangle;whiteSpace=wrap;html=1;fillColor=#ffffff;" parent="1" vertex="1">
          <mxGeometry x="570" y="85.00999999999999" width="80" height="30" as="geometry" />
        </mxCell>
        <mxCell id="userroute" value="UserRoute" style="shape=rectangle;whiteSpace=wrap;html=1;fillColor=#ffffff;" parent="1" vertex="1">
          <mxGeometry x="490" y="235.01" width="80" height="30" as="geometry" />
        </mxCell>
        <mxCell id="feedback" value="Feedback" style="shape=rectangle;whiteSpace=wrap;html=1;fillColor=#ffffff;" parent="1" vertex="1">
          <mxGeometry x="50" y="50" width="80" height="30" as="geometry" />
        </mxCell>
        <mxCell id="UserId" value="&lt;u&gt;UserId&lt;/u&gt;" style="ellipse;whiteSpace=wrap;html=1;" parent="1" vertex="1">
          <mxGeometry x="330" y="75.00999999999999" width="80" height="30" as="geometry" />
        </mxCell>
        <mxCell id="Username" value="Username" style="ellipse;whiteSpace=wrap;html=1;" parent="1" vertex="1">
          <mxGeometry x="430" y="105.00999999999999" width="80" height="30" as="geometry" />
        </mxCell>
        <mxCell id="Password" value="PasswordHash" style="ellipse;whiteSpace=wrap;html=1;" parent="1" vertex="1">
          <mxGeometry x="200" y="135.01" width="100" height="30" as="geometry" />
        </mxCell>
        <mxCell id="UserCreated" value="CreatedAt" style="ellipse;whiteSpace=wrap;html=1;" parent="1" vertex="1">
          <mxGeometry x="330" y="185.01" width="80" height="30" as="geometry" />
        </mxCell>
        <mxCell id="RouteId" value="Id" style="ellipse;whiteSpace=wrap;html=1;" parent="1" vertex="1">
          <mxGeometry x="680" y="55.01" width="60" height="30" as="geometry" />
        </mxCell>
        <mxCell id="Start" value="&lt;u&gt;Start&lt;/u&gt;" style="ellipse;whiteSpace=wrap;html=1;" parent="1" vertex="1">
          <mxGeometry x="670" y="85.00999999999999" width="60" height="30" as="geometry" />
        </mxCell>
        <mxCell id="End" value="End" style="ellipse;whiteSpace=wrap;html=1;" parent="1" vertex="1">
          <mxGeometry x="670" y="125.00999999999999" width="60" height="30" as="geometry" />
        </mxCell>
        <mxCell id="FeedbackId" value="&lt;u&gt;Id&lt;/u&gt;" style="ellipse;whiteSpace=wrap;html=1;" parent="1" vertex="1">
          <mxGeometry x="30" y="10" width="60" height="30" as="geometry" />
        </mxCell>
        <mxCell id="Message" value="Message" style="ellipse;whiteSpace=wrap;html=1;" parent="1" vertex="1">
          <mxGeometry x="30" y="90" width="80" height="30" as="geometry" />
        </mxCell>
        <mxCell id="FeedbackCreated" value="CreatedAt" style="ellipse;whiteSpace=wrap;html=1;" parent="1" vertex="1">
          <mxGeometry x="10" y="130" width="80" height="30" as="geometry" />
        </mxCell>
        <mxCell id="rel_speichert" value="speichert" style="rhombus;whiteSpace=wrap;html=1;rotation=45;" parent="1" vertex="1">
          <mxGeometry x="450" y="180" width="30" height="30" as="geometry" />
        </mxCell>
        <mxCell id="rel_feedback" value="gibt" style="rhombus;whiteSpace=wrap;html=1;rotation=45;" parent="1" vertex="1">
          <mxGeometry x="200" y="59.999999999999986" width="30" height="30" as="geometry" />
        </mxCell>
        <mxCell id="e1" style="endArrow=none;" parent="1" source="UserId" target="user" edge="1">
          <mxGeometry relative="1" as="geometry" />
        </mxCell>
        <mxCell id="e2" style="endArrow=none;" parent="1" source="Username" target="user" edge="1">
          <mxGeometry relative="1" as="geometry" />
        </mxCell>
        <mxCell id="e3" style="endArrow=none;" parent="1" source="Password" target="user" edge="1">
          <mxGeometry relative="1" as="geometry" />
        </mxCell>
        <mxCell id="e4" style="endArrow=none;" parent="1" source="UserCreated" target="user" edge="1">
          <mxGeometry relative="1" as="geometry" />
        </mxCell>
        <mxCell id="e5" style="endArrow=none;" parent="1" target="route" edge="1">
          <mxGeometry relative="1" as="geometry">
            <mxPoint x="677.6218701512171" y="70.00023653963535" as="sourcePoint" />
          </mxGeometry>
        </mxCell>
        <mxCell id="e6" style="endArrow=none;" parent="1" source="Start" target="route" edge="1">
          <mxGeometry relative="1" as="geometry" />
        </mxCell>
        <mxCell id="e7" style="endArrow=none;" parent="1" source="End" target="route" edge="1">
          <mxGeometry relative="1" as="geometry" />
        </mxCell>
        <mxCell id="e8" style="endArrow=none;" parent="1" source="FeedbackId" target="feedback" edge="1">
          <mxGeometry relative="1" as="geometry" />
        </mxCell>
        <mxCell id="e9" style="endArrow=none;" parent="1" source="Message" target="feedback" edge="1">
          <mxGeometry relative="1" as="geometry" />
        </mxCell>
        <mxCell id="e10" style="endArrow=none;" parent="1" source="FeedbackCreated" target="feedback" edge="1">
          <mxGeometry relative="1" as="geometry" />
        </mxCell>
        <mxCell id="rel1" style="endArrow=none;" parent="1" source="user" target="rel_speichert" edge="1">
          <mxGeometry relative="1" as="geometry" />
        </mxCell>
        <mxCell id="e1AZ4fW-Wy99EEfnhhfK-5" value="1" style="edgeLabel;html=1;align=center;verticalAlign=middle;resizable=0;points=[];" parent="rel1" vertex="1" connectable="0">
          <mxGeometry x="0.0033" relative="1" as="geometry">
            <mxPoint as="offset" />
          </mxGeometry>
        </mxCell>
        <mxCell id="rel2" style="endArrow=none;" parent="1" source="rel_speichert" target="userroute" edge="1">
          <mxGeometry relative="1" as="geometry" />
        </mxCell>
        <mxCell id="e1AZ4fW-Wy99EEfnhhfK-6" value="n" style="edgeLabel;html=1;align=center;verticalAlign=middle;resizable=0;points=[];" parent="rel2" vertex="1" connectable="0">
          <mxGeometry x="-0.0981" y="3" relative="1" as="geometry">
            <mxPoint as="offset" />
          </mxGeometry>
        </mxCell>
        <mxCell id="rel3" style="endArrow=none;" parent="1" source="user" target="rel_feedback" edge="1">
          <mxGeometry relative="1" as="geometry" />
        </mxCell>
        <mxCell id="e1AZ4fW-Wy99EEfnhhfK-3" value="1" style="edgeLabel;html=1;align=center;verticalAlign=middle;resizable=0;points=[];" parent="rel3" vertex="1" connectable="0">
          <mxGeometry x="-0.0902" y="-4" relative="1" as="geometry">
            <mxPoint as="offset" />
          </mxGeometry>
        </mxCell>
        <mxCell id="rel4" style="endArrow=none;" parent="1" source="rel_feedback" target="feedback" edge="1">
          <mxGeometry relative="1" as="geometry" />
        </mxCell>
        <mxCell id="e1AZ4fW-Wy99EEfnhhfK-2" value="n" style="edgeLabel;html=1;align=center;verticalAlign=middle;resizable=0;points=[];" parent="rel4" vertex="1" connectable="0">
          <mxGeometry x="-0.1587" y="1" relative="1" as="geometry">
            <mxPoint as="offset" />
          </mxGeometry>
        </mxCell>
        <mxCell id="3S8wlcCt0LekGMGt02gZ-1" value="cn" style="edgeLabel;html=1;align=center;verticalAlign=middle;resizable=0;points=[];" vertex="1" connectable="0" parent="rel4">
          <mxGeometry x="-0.1523" y="-2" relative="1" as="geometry">
            <mxPoint as="offset" />
          </mxGeometry>
        </mxCell>
        <mxCell id="e1AZ4fW-Wy99EEfnhhfK-9" value="" style="endArrow=none;html=1;rounded=0;exitX=1;exitY=0;exitDx=0;exitDy=0;entryX=0;entryY=1;entryDx=0;entryDy=0;" parent="1" source="rel_speichert" target="route" edge="1">
          <mxGeometry width="50" height="50" relative="1" as="geometry">
            <mxPoint x="390" y="330" as="sourcePoint" />
            <mxPoint x="440" y="280" as="targetPoint" />
            <Array as="points" />
          </mxGeometry>
        </mxCell>
        <mxCell id="e1AZ4fW-Wy99EEfnhhfK-10" value="n" style="edgeLabel;html=1;align=center;verticalAlign=middle;resizable=0;points=[];" parent="e1AZ4fW-Wy99EEfnhhfK-9" vertex="1" connectable="0">
          <mxGeometry x="0.2311" y="3" relative="1" as="geometry">
            <mxPoint as="offset" />
          </mxGeometry>
        </mxCell>
        <mxCell id="e1AZ4fW-Wy99EEfnhhfK-12" value="Duration" style="ellipse;whiteSpace=wrap;html=1;" parent="1" vertex="1">
          <mxGeometry x="610" y="150" width="60" height="30" as="geometry" />
        </mxCell>
        <mxCell id="e1AZ4fW-Wy99EEfnhhfK-13" value="&lt;u&gt;Id&lt;/u&gt;" style="ellipse;whiteSpace=wrap;html=1;" parent="1" vertex="1">
          <mxGeometry x="590" y="235.01" width="60" height="30" as="geometry" />
        </mxCell>
        <mxCell id="e1AZ4fW-Wy99EEfnhhfK-14" style="endArrow=none;entryX=0.5;entryY=1;entryDx=0;entryDy=0;" parent="1" source="e1AZ4fW-Wy99EEfnhhfK-12" target="route" edge="1">
          <mxGeometry relative="1" as="geometry">
            <mxPoint x="600" y="204.99" as="targetPoint" />
          </mxGeometry>
        </mxCell>
        <mxCell id="e1AZ4fW-Wy99EEfnhhfK-16" value="SavedAt" style="ellipse;whiteSpace=wrap;html=1;" parent="1" vertex="1">
          <mxGeometry x="530" y="300" width="80" height="40" as="geometry" />
        </mxCell>
        <mxCell id="e1AZ4fW-Wy99EEfnhhfK-17" value="" style="endArrow=none;html=1;rounded=0;exitX=0.545;exitY=0.185;exitDx=0;exitDy=0;exitPerimeter=0;entryX=0.5;entryY=1;entryDx=0;entryDy=0;" parent="1" source="e1AZ4fW-Wy99EEfnhhfK-16" target="userroute" edge="1">
          <mxGeometry width="50" height="50" relative="1" as="geometry">
            <mxPoint x="480" y="320" as="sourcePoint" />
            <mxPoint x="534" y="288" as="targetPoint" />
          </mxGeometry>
        </mxCell>
        <mxCell id="e1AZ4fW-Wy99EEfnhhfK-18" value="IsFavourite" style="ellipse;whiteSpace=wrap;html=1;" parent="1" vertex="1">
          <mxGeometry x="414" y="290" width="80" height="40" as="geometry" />
        </mxCell>
        <mxCell id="e1AZ4fW-Wy99EEfnhhfK-19" value="" style="endArrow=none;html=1;rounded=0;" parent="1" edge="1">
          <mxGeometry width="50" height="50" relative="1" as="geometry">
            <mxPoint x="450" y="290" as="sourcePoint" />
            <mxPoint x="490" y="250" as="targetPoint" />
          </mxGeometry>
        </mxCell>
        <mxCell id="e1AZ4fW-Wy99EEfnhhfK-20" value="" style="endArrow=none;html=1;rounded=0;entryX=0;entryY=0.5;entryDx=0;entryDy=0;" parent="1" target="e1AZ4fW-Wy99EEfnhhfK-13" edge="1">
          <mxGeometry width="50" height="50" relative="1" as="geometry">
            <mxPoint x="570" y="250" as="sourcePoint" />
            <mxPoint x="620" y="200" as="targetPoint" />
          </mxGeometry>
        </mxCell>
        <mxCell id="e1AZ4fW-Wy99EEfnhhfK-21" value="IsFavourite" style="ellipse;whiteSpace=wrap;html=1;" parent="1" vertex="1">
          <mxGeometry x="590" y="20" width="80" height="40" as="geometry" />
        </mxCell>
        <mxCell id="e1AZ4fW-Wy99EEfnhhfK-22" value="" style="endArrow=none;html=1;rounded=0;" parent="1" edge="1">
          <mxGeometry width="50" height="50" relative="1" as="geometry">
            <mxPoint x="610" y="90" as="sourcePoint" />
            <mxPoint x="630" y="60" as="targetPoint" />
          </mxGeometry>
        </mxCell>
        <mxCell id="e1AZ4fW-Wy99EEfnhhfK-23" value="CreatedAt" style="ellipse;whiteSpace=wrap;html=1;" parent="1" vertex="1">
          <mxGeometry x="500" y="30" width="80" height="30" as="geometry" />
        </mxCell>
        <mxCell id="e1AZ4fW-Wy99EEfnhhfK-24" value="" style="endArrow=none;html=1;rounded=0;exitX=0.25;exitY=0;exitDx=0;exitDy=0;" parent="1" source="route" edge="1">
          <mxGeometry width="50" height="50" relative="1" as="geometry">
            <mxPoint x="500" y="110" as="sourcePoint" />
            <mxPoint x="550" y="60" as="targetPoint" />
          </mxGeometry>
        </mxCell>
        <mxCell id="e1AZ4fW-Wy99EEfnhhfK-25" value="Distance" style="ellipse;whiteSpace=wrap;html=1;" parent="1" vertex="1">
          <mxGeometry x="500" y="75.00999999999999" width="60" height="30" as="geometry" />
        </mxCell>
        <mxCell id="e1AZ4fW-Wy99EEfnhhfK-26" value="" style="endArrow=none;html=1;rounded=0;entryX=0;entryY=0.5;entryDx=0;entryDy=0;" parent="1" target="route" edge="1">
          <mxGeometry width="50" height="50" relative="1" as="geometry">
            <mxPoint x="560" y="90" as="sourcePoint" />
            <mxPoint x="610" y="40" as="targetPoint" />
          </mxGeometry>
        </mxCell>
      </root>
    </mxGraphModel>
  </diagram>
</mxfile>
